<svg xmlns="http://www.w3.org/2000/svg" width="32.258" height="29.061"><path d="M4.916.001a.4.4 0 00-.195.069L4.71.081a1.128 1.128 0 00-.55.172 1.45 1.45 0 00-.126 2.04l3.209 4.148H2.269a2.6 2.6 0 00-1.558.481A1.654 1.654 0 000 8.224v3.323a1.654 1.654 0 00.711 1.307 2.6 2.6 0 001.558.481h.791l1.81 12.389v.011a4.1 4.1 0 004.148 3.323h14.233a4.092 4.092 0 004.133-3.32l.012-.011 1.81-12.387h.778a2.6 2.6 0 001.558-.481 1.654 1.654 0 00.711-1.307V8.224a1.654 1.654 0 00-.711-1.307 2.6 2.6 0 00-1.558-.476h-5.553l1.253-1.617 1.948-2.521v-.012a1.81 1.81 0 00.275-.516v-.011a1.473 1.473 0 00-.046-1.077V.676a1.131 1.131 0 00-.138-.217V.447a1.216 1.216 0 00-.206-.195 1.1 1.1 0 00-.183-.114h-.011a1.141 1.141 0 00-.195-.08 1.307 1.307 0 00-.413-.057h-.034a.409.409 0 00-.08.023 1.6 1.6 0 00-1.088.63.059.059 0 000 .011l-4.458 5.776H10.623L6.165.654A1.621 1.621 0 004.95.001h-.034zm.011.814a.809.809 0 01.6.332l4.515 5.856a.4.4 0 00.058.092l.492.642c-.021.008-.037.025-.057.034l-.092.046s-.054.029-.08.046a1.706 1.706 0 00-.584.55l-1.41-1.822a.436.436 0 00-.034-.034L4.679 1.801a.651.651 0 01-.023-.905V.885a.409.409 0 01.275-.069zm21.807 0a.411.411 0 01.275.08.556.556 0 01.126.63v.011a.933.933 0 01-.057.126v.011a1.074 1.074 0 01-.092.126v.011l-3.69 4.79a.353.353 0 00-.023.034l-1.4 1.81a1.771 1.771 0 00-.355-.4 1.681 1.681 0 00-.149-.126c-.01-.007-.024 0-.034-.011a1.585 1.585 0 00-.286-.161l.435-.573a.4.4 0 00.092-.092l4.572-5.924a1.065 1.065 0 01.138-.149.849.849 0 01.3-.172.6.6 0 01.149-.023zM2.269 7.243h5.569l1.673 2.166a1.7 1.7 0 001.685 1.639 1.7 1.7 0 00.378-3.369l-.332-.435h9.19l-.321.424a1.7 1.7 0 102.017 1.776l1.7-2.2h6.165a1.824 1.824 0 011.077.332.826.826 0 01.39.653v3.323a.827.827 0 01-.39.653 1.827 1.827 0 01-1.077.332h-1.047a.408.408 0 00-.161 0H3.484a.4.4 0 00-.15-.013l-.034.011H2.269a1.829 1.829 0 01-1.077-.332.826.826 0 01-.389-.653V8.224a.825.825 0 01.389-.653 1.826 1.826 0 011.077-.332zm8.927 1.192h.012c.017 0 .037.005.092.011a.9.9 0 11-1 .917.407.407 0 00.011-.092.9.9 0 01.252-.573l.012-.011.011-.011h.011a.919.919 0 01.264-.172h.011a.877.877 0 01.138-.046.943.943 0 01.183-.023zm9.225 0h.012a.943.943 0 01.172.023h.012a.893.893 0 01.71.86v.046a.9.9 0 01-.905.882.905.905 0 010-1.811zm-16.559 4.9h24.534l-1.8 12.25a3.241 3.241 0 01-3.346 2.67H9.019a3.241 3.241 0 01-3.346-2.67l-1.81-12.25zm6.406 1.868a1.754 1.754 0 00-1.753 1.742v7.689a1.75 1.75 0 103.5 0v-7.685a1.744 1.744 0 00-1.747-1.742zm5.867 0a1.754 1.754 0 00-1.751 1.746v7.689a1.75 1.75 0 103.5 0v-7.689a1.744 1.744 0 00-1.749-1.742zm5.867 0a1.754 1.754 0 00-1.753 1.742v7.689a1.75 1.75 0 103.5 0v-7.685a1.744 1.744 0 00-1.747-1.742zm-11.734.8a.929.929 0 01.94.939v7.689a.94.94 0 11-1.879 0v-7.682a.929.929 0 01.939-.939zm5.867 0a.929.929 0 01.94.939v7.689a.94.94 0 11-1.879 0v-7.682a.929.929 0 01.939-.939zm5.867 0a.929.929 0 01.94.939v7.689a.94.94 0 11-1.879 0v-7.682a.929.929 0 01.939-.939z" fill="#fff"/></svg>