<svg width="18" height="18" viewBox="0 0 18 18" fill="none" xmlns="http://www.w3.org/2000/svg">
<path d="M16.1036 5.1073V0.707531C16.1036 0.579422 16.0273 0.463687 15.9096 0.413168C15.7919 0.362648 15.6554 0.387152 15.5626 0.47543C13.6378 2.30637 11.1147 3.31465 8.45814 3.31465H4.58304C4.4061 3.31465 4.26273 3.45805 4.26273 3.63496C4.26273 3.81186 4.4061 3.95527 4.58304 3.95527H8.45817C10.3356 3.95527 12.1501 3.48055 13.7567 2.59032V3.99647C13.7567 4.17337 13.9 4.31678 14.077 4.31678C14.2539 4.31678 14.3973 4.17337 14.3973 3.99647V2.206C14.766 1.96725 15.1221 1.70593 15.4631 1.4217V5.32794C15.463 5.33128 15.463 5.33462 15.4631 5.33793V10.4891C15.463 10.4924 15.463 10.4958 15.4631 10.4991V13.8051C15.1222 13.5208 14.766 13.2595 14.3973 13.0208V5.16292C14.3973 4.98601 14.2539 4.84261 14.077 4.84261C13.9 4.84261 13.7567 4.98601 13.7567 5.16292V12.6364C12.1501 11.7462 10.3356 11.2715 8.45817 11.2715H4.22336C3.03423 11.2715 2.06684 10.3041 2.06684 9.11494V6.11178C2.06684 5.24307 2.58384 4.46306 3.38404 4.12465C3.54691 4.05571 3.6232 3.86776 3.55423 3.70485C3.48536 3.54193 3.29737 3.46568 3.13446 3.53462C2.10284 3.97098 1.43437 4.97336 1.42661 6.09199H0.971402C0.435762 6.0921 0 6.52782 0 7.06346V8.46388C0 8.99952 0.435797 9.43528 0.971402 9.43528H1.4451C1.6046 10.8272 2.78937 11.9121 4.22336 11.9121H7.68994L9.0347 16.5075C9.06715 16.6182 9.04605 16.7347 8.97683 16.8271C8.90764 16.9195 8.80168 16.9725 8.68627 16.9725H6.80734C6.6472 16.9725 6.50394 16.8651 6.45894 16.7114L5.25396 12.5938C5.20425 12.424 5.02646 12.3267 4.85659 12.3763C4.68679 12.426 4.58947 12.6039 4.63911 12.7737L5.84409 16.8913C5.96844 17.3162 6.36462 17.613 6.80734 17.613H8.68627C9.00541 17.613 9.29813 17.4665 9.48948 17.2112C9.68084 16.9558 9.7392 16.6337 9.64955 16.3275L9.16559 14.6737H9.73811C10.0571 14.6737 10.3498 14.5273 10.5412 14.272C10.7326 14.0167 10.791 13.6946 10.7015 13.3882L10.3188 12.0803C12.2773 12.4371 14.0942 13.3545 15.5627 14.7513C15.6234 14.8091 15.7028 14.8396 15.7835 14.8396C15.8261 14.8396 15.869 14.8311 15.9096 14.8137C16.0274 14.7632 16.1037 14.6474 16.1037 14.5193V10.7198C17.2472 10.263 18 9.16356 18 7.91354C18 6.66346 17.2472 5.56405 16.1036 5.1073ZM1.42618 8.79463H0.971402C0.789012 8.79466 0.640582 8.64627 0.640582 8.46388V7.06346C0.640582 6.88107 0.788977 6.73264 0.971402 6.73264H1.42618V8.79463ZM10.0286 13.8877C9.95941 13.9801 9.85345 14.0331 9.73807 14.0331H8.9781L8.35741 11.9121H8.45821C8.84932 11.9121 9.23737 11.9345 9.62125 11.9776L10.0866 13.568C10.119 13.6788 10.0979 13.7954 10.0286 13.8877ZM16.1036 10.0141V5.81296C16.8693 6.22112 17.3594 7.01815 17.3594 7.91347C17.3594 8.8088 16.8693 9.60589 16.1036 10.0141Z" fill="white"/>
</svg>
