<svg width="18" height="18" viewBox="0 0 18 18" fill="none" xmlns="http://www.w3.org/2000/svg">
<g clip-path="url(#clip0)">
<path d="M8.96488 16.4004C9.60561 16.4004 10.125 15.881 10.125 15.2402C10.125 14.5995 9.60561 14.0801 8.96488 14.0801C8.32414 14.0801 7.80472 14.5995 7.80472 15.2402C7.80472 15.881 8.32414 16.4004 8.96488 16.4004Z" fill="white"/>
<path d="M17.8113 5.44443C15.5004 2.96511 12.3713 1.59964 8.99988 1.59961C5.62876 1.59964 2.49961 2.96511 0.188758 5.44443C-0.0759678 5.72849 -0.0603233 6.17343 0.223739 6.43819C0.507836 6.70292 0.952737 6.68731 1.2175 6.40321C3.25937 4.21242 6.02321 3.00589 9.00013 3.00586C11.9768 3.00589 14.7406 4.21242 16.7825 6.40321C16.921 6.55178 17.1088 6.62694 17.297 6.62694C17.4687 6.62694 17.6408 6.56444 17.7763 6.43819C18.0603 6.17339 18.076 5.72849 17.8113 5.44443Z" fill="white"/>
<path d="M15.2295 8.34818C13.5213 6.62715 11.309 5.67937 8.99994 5.67944C6.69036 5.67948 4.47798 6.62729 2.77037 8.34825C2.49686 8.62391 2.49858 9.06909 2.77424 9.34261C3.0499 9.61612 3.49508 9.6144 3.7686 9.33874C5.21018 7.88588 7.06804 7.08572 8.99994 7.08569C10.9314 7.08562 12.7892 7.88581 14.2313 9.33881C14.3688 9.47729 14.5496 9.54662 14.7304 9.54662C14.9094 9.54662 15.0886 9.47863 15.2257 9.34254C15.5013 9.06899 15.503 8.62381 15.2295 8.34818Z" fill="white"/>
<path d="M12.4154 11.2603C11.5007 10.354 10.1894 9.79102 8.99336 9.79102C8.99322 9.79102 8.99297 9.79102 8.99283 9.79102H8.94217C8.94196 9.79102 8.94186 9.79102 8.94164 9.79102C7.74553 9.79102 6.4342 10.354 5.51947 11.2603C5.24364 11.5336 5.24156 11.9787 5.51487 12.2546C5.65236 12.3934 5.83335 12.4629 6.01437 12.4629C6.1932 12.4629 6.37211 12.3951 6.50919 12.2593C7.16039 11.6141 8.11512 11.1973 8.94172 11.1973C8.94182 11.1973 8.94196 11.1973 8.94207 11.1973H8.99294C8.99308 11.1973 8.99311 11.1973 8.99325 11.1973C9.81974 11.1973 10.7745 11.6141 11.4257 12.2593C11.7015 12.5325 12.1468 12.5306 12.42 12.2546C12.6934 11.9788 12.6913 11.5336 12.4154 11.2603Z" fill="white"/>
</g>
<defs>
<clipPath id="clip0">
<rect width="18" height="18" fill="white"/>
</clipPath>
</defs>
</svg>
